<svg data-v-0dd9719b="" version="1.0" xmlns="http://www.w3.org/2000/svg" xmlns:xlink="http://www.w3.org/1999/xlink" width="100%" height="100%" viewBox="0 0 340.000000 250.000000" preserveAspectRatio="xMidYMid meet" color-interpolation-filters="sRGB" style="margin: auto;"> <rect data-v-0dd9719b="" x="0" y="0" width="100%" height="100%" fill="#fff" fill-opacity="1" class="background"></rect> <rect data-v-0dd9719b="" x="0" y="0" width="100%" height="100%" fill="url(#watermark)" fill-opacity="1" class="watermarklayer"></rect> <g data-v-0dd9719b="" fill="#333" class="icon-text-wrapper icon-svg-group iconsvg" transform="translate(69.08499908447266,95.01139640808105)"><g class="iconsvg-imagesvg" transform="translate(0,0)"><g><rect fill="#333" fill-opacity="0" stroke-width="2" x="0" y="0" width="60" height="59.977208660708925" class="image-rect"></rect> <svg x="0" y="0" width="60" height="59.977208660708925" filtersec="colorsb4460325254" class="image-svg-svg primary" style="overflow: visible;"><svg xmlns="http://www.w3.org/2000/svg" viewBox="-0.024392234161496162 -0.00439166696742177 206.4888916015625 206.41061401367188"><title>资源 7</title><g fill-rule="evenodd"><path d="M176.24 176.18a102.91 102.91 0 0 1-76.44 30.16c-8.75-.29-10.94-10.72-6.79-17 17.92-27.07 75.72-28.09 101.23-60a56.23 56.23 0 0 0 10.57-21.88c.56-2.21 1.26-4.67 1.63-6.42a102.92 102.92 0 0 1-30.2 75.1z" fill="#03b2de" opacity=".48"></path><path d="M176.18 176.24a102.92 102.92 0 0 0 30.16-76.44c-.29-8.76-10.73-10.94-17-6.79C168.21 107 163 145.3 146.5 173.56c-9.44 16.21-25.92 31.19-45.38 32.82a102.78 102.78 0 0 0 75.06-30.14z" fill="#8e03ff" opacity=".48"></path><path d="M30.22 30.28A102.94 102.94 0 0 1 106.66.12c8.77.29 10.94 10.73 6.79 17-17.91 27.07-75.72 28.09-101.23 60A56.23 56.23 0 0 0 1.65 99c-.56 2.17-1.25 4.63-1.65 6.38a102.93 102.93 0 0 1 30.2-75.1z" fill="#00deb9" opacity=".48"></path><path d="M30.28 30.22A102.94 102.94 0 0 0 .12 106.66c.29 8.77 10.73 10.94 17 6.79 27.07-17.91 28.09-75.72 60-101.23A56.23 56.23 0 0 1 99 1.65c2.21-.56 4.67-1.25 6.42-1.63a102.93 102.93 0 0 0-75.1 30.2z" fill="#1d88e1" opacity=".48"></path><path d="M44 187.8c-32.11-55.4 181.83-82.46 145-142a103.71 103.71 0 0 0-26.5-27.07c25.84 44.36-100 69.18-138.89 106.54C12.3 136.12 10.9 151.63 20 164.34a103.82 103.82 0 0 0 24 23.46z" fill="#8e03ff" opacity=".48"></path><path d="M187.75 44c-51.41-29.78-77.2 148.08-127.43 150-4.47.18-9.6-2-14.56-5a103.71 103.71 0 0 1-27.07-26.5C71.5 193.28 96.63 9 148.17 12.54c4.69.32 10.6 3.57 16.11 7.51a104.32 104.32 0 0 1 23.47 24z" fill="#1d88e1" opacity=".48"></path></g></svg></svg> <!----></g></g> <g transform="translate(67,5.74360466003418)"><g data-gra="path-name" fill-rule="" class="tp-name iconsvg-namesvg"><g transform="scale(1)"><g><path d="M43.67-32.75L43.67-32.75 37.58-32.75Q35.29-42.15 24.63-42.4L24.63-42.4Q9.9-41.64 9.39-23.61L9.39-23.61Q9.39-4.32 24.88-4.32L24.88-4.32Q35.55-4.57 38.09-17.27L38.09-17.27 44.18-17.27Q41.39 0.25 23.61 0.76L23.61 0.76Q3.3 0 2.79-23.36L2.79-23.36Q3.81-46.72 24.63-47.73L24.63-47.73Q41.13-47.23 43.67-32.75ZM49-17.01L49-17.01Q50.02-34.28 64.75-35.04L64.75-35.04Q79.47-34.28 80.49-17.01L80.49-17.01Q79.47 0 64.75 0.51L64.75 0.51Q50.02 0 49-17.01ZM54.84-17.01L54.84-17.01Q55.61-4.32 64.75-4.06L64.75-4.06Q73.89-4.32 74.65-17.01L74.65-17.01Q73.89-29.71 64.75-29.96L64.75-29.96Q55.61-29.71 54.84-17.01ZM93.44-19.8L93.44-19.8 93.44 0 87.6 0 87.6-34.02 93.18-34.02 93.18-28.18Q96.99-35.04 102.83-35.04L102.83-35.04Q103.34-35.04 103.85-34.79L103.85-34.79Q104.1-34.79 104.36-34.79L104.36-34.79 104.36-28.69 102.07-28.69Q93.95-28.18 93.44-19.8ZM131.52-10.66L131.52-10.66 137.11-10.66Q136.09-4.82 131.02-1.27L131.02-1.27Q128.22 0.51 121.88 0.51L121.88 0.51Q107.4 0 106.64-16L106.64-16Q107.15-34.53 122.89-35.04L122.89-35.04Q137.36-34.79 137.62-14.98L137.62-14.98 112.73-14.98Q112.73-3.81 122.64-3.81L122.64-3.81Q129.75-4.32 131.52-10.66ZM112.73-19.55L112.73-19.55 131.78-19.55Q131.02-29.71 122.13-29.71L122.13-29.71Q113.75-28.95 112.73-19.55Z" transform="translate(-2.7899999618530273, 47.72999954223633)"></path></g> <!----> <!----> <!----> <!----> <!----> <!----> <!----></g></g> <!----></g></g><defs v-gra="od"></defs></svg>